*
*
G04 PADS 9.5 Build Number: 522968 generated Gerber (RS-274-X) file*
G04 PC Version=2.1*
*
%IN "SBAS8.pcb"*%
*
%MOIN*%
*
%FSLAX35Y35*%
*
*
*
*
G04 PC Standard Apertures*
*
*
G04 Thermal Relief Aperture macro.*
%AMTER*
1,1,$1,0,0*
1,0,$1-$2,0,0*
21,0,$3,$4,0,0,45*
21,0,$3,$4,0,0,135*
%
*
*
G04 Annular Aperture macro.*
%AMANN*
1,1,$1,0,0*
1,0,$2,0,0*
%
*
*
G04 Odd Aperture macro.*
%AMODD*
1,1,$1,0,0*
1,0,$1-0.005,0,0*
%
*
*
G04 PC Custom Aperture Macros*
*
*
*
*
*
*
G04 PC Aperture Table*
*
%ADD010C,0.001*%
%ADD012R,0.02X0.025*%
%ADD014O,0.05512X0.0374*%
%ADD015O,0.04331X0.0374*%
%ADD016C,0.04724*%
%ADD017C,0.05512*%
%ADD018C,0.01181*%
%ADD019C,0.02362*%
%ADD020C,0.00394*%
%ADD021R,0.05906X0.05906*%
%ADD022R,0.05118X0.05906*%
%ADD023O,0.02756X0.01181*%
%ADD024O,0.0315X0.01181*%
%ADD025O,0.01181X0.02756*%
%ADD026O,0.01181X0.0315*%
%ADD027R,0.06102X0.06102*%
%ADD028R,0.025X0.02*%
%ADD029R,0.02362X0.0315*%
%ADD030C,0.00984*%
%ADD031C,0.00787*%
*
*
*
*
G04 PC Circuitry*
G04 Layer Name SBAS8.pcb - circuitry*
%LPD*%
*
*
G04 PC Custom Flashes*
G04 Layer Name SBAS8.pcb - flashes*
%LPD*%
*
*
G04 PC Circuitry*
G04 Layer Name SBAS8.pcb - circuitry*
%LPD*%
*
G54D10*
G54D12*
G01X103051Y125453D03*
Y130453D03*
Y107913D03*
Y102913D03*
X102559Y119626D03*
Y114626D03*
G54D14*
X146457Y137697D03*
Y132776D03*
Y127854D03*
Y122933D03*
Y118012D03*
G54D15*
Y113091D03*
G54D16*
X103642Y147539D03*
X111516D03*
X119390D03*
X127264D03*
X135138D03*
X143012D03*
G54D17*
X122244Y110630D03*
X115945Y114961D03*
X128150D03*
X134449Y110630D03*
G54D18*
X108071Y101870D02*
Y103150D01*
X107972Y103248*
X108071Y101870D02*
X103051D01*
Y102913*
X108071Y101870D02*
X112992D01*
X103051Y107913D02*
Y111122D01*
X103015Y111158*
X107972Y107579D02*
Y112697D01*
X105906Y114764*
Y115650*
X105965Y115709*
X105866Y116142*
X112992Y103248D02*
Y101870D01*
X125354*
X112992Y107579D02*
X115846Y110039D01*
X116437*
X125354Y101870D02*
X127657D01*
X127756Y101969*
Y102165*
X125354Y101870D02*
Y105709D01*
X129703Y108988D02*
Y108093D01*
X128642Y109154*
X130354Y105709D02*
Y108127D01*
X129936Y108545*
Y108755*
X129703Y108988*
X130276Y102067D02*
X130177Y102165D01*
X127756*
X135276Y102067D02*
Y102461D01*
X134449Y103287*
Y110630*
X140748Y105807D02*
X146165D01*
X146457Y106098*
Y113091*
X105118Y111024D02*
X104984Y111158D01*
X103015*
Y114170*
X102559Y114626*
Y119626D02*
X103051Y119724D01*
Y122933*
X105866Y116142D02*
X106988Y116969D01*
Y124606*
X109350Y126969*
X111417*
X111319Y116102D02*
Y116634D01*
X114370Y119685*
X118957*
X111319Y116102D02*
X110866Y116142D01*
X111122Y112303D02*
Y113878D01*
X110866Y116142*
X109941Y119488D02*
X110827D01*
X113386Y122047*
Y123031*
X121949Y115551D02*
X124646Y118996D01*
X124604Y119038*
Y120324*
X125098Y121358*
Y122638*
X119646Y118996D02*
X118957Y119685D01*
X140650Y112992D02*
Y115157D01*
X140551Y115256*
X135728*
X134843Y116142*
X134744*
Y125541*
X128002Y132283*
X122638*
X140650Y112992D02*
X140748Y113091D01*
X139567Y119980D02*
X141437D01*
X144390Y122933*
X146457*
X140748Y112894D02*
X140551D01*
X140650Y112992*
X103051Y128740D02*
Y140354D01*
X106102Y143406*
X103051Y128740D02*
Y130453D01*
Y122933D02*
Y125453D01*
X104232Y122835D02*
X104134Y122933D01*
X103051*
X109744Y123031D02*
Y123622D01*
X109843Y123720*
Y123819*
X111220Y125197*
X118602Y127657D02*
X116929Y128740D01*
Y134252*
X111417Y128740D02*
X103051D01*
X125098Y122736D02*
X123901Y124497D01*
X122638Y125197*
X122244Y121850D02*
Y122244D01*
X121457Y123031*
X120472*
X127559Y124114D02*
Y125394D01*
X124213Y128740*
X122441*
X131791Y124213D02*
X125689Y130512D01*
X122441*
X137106Y126969D02*
X129134Y134941D01*
X125492*
X122343Y138091*
X118514*
X137106Y126969D02*
X139278D01*
X139365Y127056*
X139567Y127067*
X139573Y127073*
Y127756*
X146358*
X146457Y127854*
X118514Y138091D02*
X114075D01*
X118701Y134252D02*
Y137904D01*
X118514Y138091*
X111417Y130512D02*
X109055D01*
Y130610*
X107677Y131988*
Y139173*
X109547Y141043*
X137402Y134006D02*
X137648D01*
X139567Y134154*
X137402Y134006D02*
X135827D01*
X132070Y137763*
X126740*
X123425Y141043*
X109547*
X146457Y132776D02*
X145079Y133661D01*
X139567*
Y134154*
X146457Y137697D02*
Y138276D01*
X146402Y138331*
Y138342*
X143519Y141225*
X139272*
X127854Y141142D02*
X137697D01*
X139272Y141225*
X127854Y141142D02*
X127657D01*
X125394Y143406*
X106102*
X139272Y141225D02*
X139551D01*
X139567Y141240*
G54D19*
X116437Y110039D03*
X128642Y109154D03*
X127756Y102165D03*
X105118Y111024D03*
X111122Y112303D03*
X109941Y119488D03*
X121949Y115551D03*
X104232Y122835D03*
X109744Y123031D03*
X118602Y127657D03*
X122244Y121850D03*
X127559Y124114D03*
X131791Y124213D03*
X114075Y138091D03*
X131102Y145079D03*
G54D20*
X100000Y100000D02*
X150787D01*
Y150787*
X100000*
Y100000*
G54D21*
X140748Y105807D03*
X139567Y119980D03*
Y127067D03*
Y134154D03*
Y141240D03*
G54D22*
X140748Y112894D03*
G54D23*
X111220Y125197D03*
Y132283D03*
X122638D03*
Y125197D03*
G54D24*
X111417Y126969D03*
Y128740D03*
Y130512D03*
X122441D03*
Y128740D03*
Y126969D03*
G54D25*
X113386Y134449D03*
X120472D03*
Y123031D03*
X113386D03*
G54D26*
X115157Y134252D03*
X116929D03*
X118701D03*
Y123228D03*
X116929D03*
X115157D03*
G54D27*
X116929Y128740D03*
G54D28*
X135276Y102067D03*
X130276D03*
X119646Y118996D03*
X124646D03*
X105866Y116142D03*
X110866D03*
X130354Y105709D03*
X125354D03*
G54D29*
X112992Y103248D03*
Y107579D03*
X107972Y103248D03*
Y107579D03*
G54D30*
X140748Y113091D02*
X145571Y117913D01*
X146358*
X146457Y118012*
G54D31*
X125098Y122638D02*
Y122736D01*
X0Y0D02*
M02*
