%
T1C.00984F0S0
X012776Y010217
X011644Y011004
X010512Y011102
X011112Y01123
X012195Y011555
X010994Y011949
X012224Y012185
X010423Y012283
X010974Y012303
X012756Y012411
X01186Y012766
X011407Y013809
X01311Y014508
X013179Y012421
X012864Y010915
T2C.01969F095S3
X014646Y011309
X014646Y011801
X014646Y012293
X014646Y012785
X014646Y013278
X014646Y01377
T3C.03543F197S55
X010364Y014754
X011152Y014754
X011939Y014754
X012726Y014754
X013514Y014754
X014301Y014754
T4C.04724F139S55
X012224Y011063
X011594Y011496
X012815Y011496
X013445Y011063
M30
