*
*
G04 PADS 9.5 Build Number: 522968 generated Gerber (RS-274-X) file*
G04 PC Version=2.1*
*
%IN "SBAS8.pcb"*%
*
%MOIN*%
*
%FSLAX35Y35*%
*
*
*
*
G04 PC Standard Apertures*
*
*
G04 Thermal Relief Aperture macro.*
%AMTER*
1,1,$1,0,0*
1,0,$1-$2,0,0*
21,0,$3,$4,0,0,45*
21,0,$3,$4,0,0,135*
%
*
*
G04 Annular Aperture macro.*
%AMANN*
1,1,$1,0,0*
1,0,$2,0,0*
%
*
*
G04 Odd Aperture macro.*
%AMODD*
1,1,$1,0,0*
1,0,$1-0.005,0,0*
%
*
*
G04 PC Custom Aperture Macros*
*
*
*
*
*
*
G04 PC Aperture Table*
*
%ADD010C,0.001*%
%ADD020C,0.00394*%
%ADD049C,0.005*%
*
*
*
*
G04 PC Circuitry*
G04 Layer Name SBAS8.pcb - circuitry*
%LPD*%
*
*
G04 PC Custom Flashes*
G04 Layer Name SBAS8.pcb - flashes*
%LPD*%
*
*
G04 PC Circuitry*
G04 Layer Name SBAS8.pcb - circuitry*
%LPD*%
*
G54D10*
G54D20*
G01X136220Y144783D02*
X142913D01*
Y102067*
X136220*
Y144783*
X147627Y142028D02*
G75*
G03X147627I-1761J0D01*
G01X122835Y132874D02*
Y134646D01*
X121063*
X112795D02*
X111024D01*
Y132874*
X122835Y124606D02*
Y122835D01*
X121063*
X112795D02*
X111024D01*
Y124606*
X109874Y125197D02*
G03X109874I-622J0D01*
G01X134026Y103642D02*
X137106D01*
Y100492*
X134026*
X131526Y103642D02*
X128445D01*
Y100492*
X131526*
X120896Y117421D02*
X117815D01*
Y120571*
X120896*
X123396Y117421D02*
X126476D01*
Y120571*
X123396*
X107116Y114567D02*
X104035D01*
Y117717*
X107116*
X109616Y114567D02*
X112697D01*
Y117717*
X109616*
X111024Y109941D02*
Y100886D01*
X114961*
Y109941*
X111024*
Y103248D02*
X111811D01*
X114961D02*
X114173D01*
X111024Y102854D02*
X111811D01*
X114961D02*
X114173D01*
X106004Y109941D02*
Y100886D01*
X109941*
Y109941*
X106004*
Y103248D02*
X106791D01*
X109941D02*
X109154D01*
X106004Y102854D02*
X106791D01*
X109941D02*
X109154D01*
X129104Y107283D02*
X132185D01*
Y104134*
X129104*
X126604Y107283D02*
X123524D01*
Y104134*
X126604*
X104626Y126703D02*
Y123622D01*
X101476*
Y126703*
X104626Y129203D02*
Y132283D01*
X101476*
Y129203*
Y106663D02*
Y109744D01*
X104626*
Y106663*
X101476Y104163D02*
Y101083D01*
X104626*
Y104163*
X100984Y118376D02*
Y121457D01*
X104134*
Y118376*
X100984Y115876D02*
Y112795D01*
X104134*
Y115876*
X145768Y150886D02*
Y144193D01*
X100886*
Y150886*
X145768*
X144772Y141634D02*
G03X144772I-1760J0D01*
G01X100000Y100000D02*
X150787D01*
Y150787*
X100000*
Y100000*
G54D49*
X132736Y136288D02*
X132424Y136401D01*
X132111Y136628*
X131955Y136856*
Y137310*
X132111Y137538*
X132424Y137765*
X132736Y137878*
X133205Y137992*
X133986*
X134455Y137878*
X134767Y137765*
X135080Y137538*
X135236Y137310*
Y136856*
X135080Y136628*
X134767Y136401*
X134455Y136288*
X131955Y134583D02*
X132111Y134810D01*
X132424Y135038*
X132736Y135151*
X133205Y135265*
X133986*
X134455Y135151*
X134767Y135038*
X135080Y134810*
X135236Y134583*
Y134128*
X135080Y133901*
X134767Y133674*
X134455Y133560*
X133986Y133447*
X133205*
X132736Y133560*
X132424Y133674*
X132111Y133901*
X131955Y134128*
Y134583*
Y132424D02*
X135236D01*
X131955D02*
X135236Y130833D01*
X131955D02*
X135236D01*
X131955Y129810D02*
X135236D01*
X131955D02*
X135236Y128219D01*
X131955D02*
X135236D01*
X132736Y127083D02*
X132580D01*
X132267Y126969*
X132111Y126856*
X131955Y126628*
Y126174*
X132111Y125947*
X132267Y125833*
X132580Y125719*
X132892*
X133205Y125833*
X133674Y126060*
X135236Y127197*
Y125606*
X118307Y140289D02*
Y137945D01*
X118193Y137477*
X117966Y137164*
X117625Y137008*
X117398*
X117057Y137164*
X116830Y137477*
X116716Y137945*
Y140289*
X115580Y139508D02*
Y139664D01*
X115466Y139977*
X115353Y140133*
X115125Y140289*
X114671*
X114443Y140133*
X114330Y139977*
X114216Y139664*
Y139352*
X114330Y139039*
X114557Y138570*
X115693Y137008*
X114103*
X132744Y98465D02*
X132858Y98777D01*
X133085Y99090*
X133312Y99246*
X133767*
X133994Y99090*
X134222Y98777*
X134335Y98465*
X134449Y97996*
Y97215*
X134335Y96746*
X134222Y96433*
X133994Y96121*
X133767Y95965*
X133312*
X133085Y96121*
X132858Y96433*
X132744Y96746*
X131608Y98465D02*
Y98621D01*
X131494Y98933*
X131381Y99090*
X131153Y99246*
X130699*
X130472Y99090*
X130358Y98933*
X130244Y98621*
Y98308*
X130358Y97996*
X130585Y97527*
X131722Y95965*
X130131*
X125098Y124738D02*
Y121457D01*
Y124738D02*
X124076D01*
X123735Y124582*
X123621Y124425*
X123508Y124113*
Y123800*
X123621Y123488*
X123735Y123332*
X124076Y123175*
X125098*
X124303D02*
X123508Y121457D01*
X122485Y124113D02*
X122258Y124269D01*
X121917Y124738*
Y121457*
X110335Y121785D02*
Y118504D01*
Y121785D02*
X109312D01*
X108971Y121629*
X108857Y121473*
X108744Y121160*
Y120848*
X108857Y120535*
X108971Y120379*
X109312Y120223*
X110335*
X109539D02*
X108744Y118504D01*
X107607Y121004D02*
Y121160D01*
X107494Y121473*
X107380Y121629*
X107153Y121785*
X106698*
X106471Y121629*
X106357Y121473*
X106244Y121160*
Y120848*
X106357Y120535*
X106585Y120066*
X107721Y118504*
X106130*
X114469Y98852D02*
Y95571D01*
Y98852D02*
X113673D01*
X113332Y98696*
X113105Y98383*
X112991Y98071*
X112878Y97602*
Y96821*
X112991Y96352*
X113105Y96040*
X113332Y95727*
X113673Y95571*
X114469*
X111855Y98227D02*
X111628Y98383D01*
X111287Y98852*
Y95571*
X109744Y98852D02*
Y95571D01*
Y98852D02*
X108949D01*
X108608Y98696*
X108380Y98383*
X108267Y98071*
X108153Y97602*
Y96821*
X108267Y96352*
X108380Y96040*
X108608Y95727*
X108949Y95571*
X109744*
X107017Y98071D02*
Y98227D01*
X106903Y98540*
X106790Y98696*
X106562Y98852*
X106108*
X105880Y98696*
X105767Y98540*
X105653Y98227*
Y97915*
X105767Y97602*
X105994Y97133*
X107130Y95571*
X105540*
X130512Y111549D02*
Y108268D01*
Y111549D02*
X129489D01*
X129148Y111393*
X129035Y111236*
X128921Y110924*
Y110611*
X129035Y110299*
X129148Y110143*
X129489Y109986*
X130512*
X129716D02*
X128921Y108268D01*
X127671Y111549D02*
X126421D01*
X127103Y110299*
X126762*
X126535Y110143*
X126421Y109986*
X126307Y109518*
Y109205*
X126421Y108736*
X126648Y108424*
X126989Y108268*
X127330*
X127671Y108424*
X127785Y108580*
X127898Y108893*
X105020Y136746D02*
Y133465D01*
Y136746D02*
X103997D01*
X103656Y136590*
X103542Y136433*
X103429Y136121*
Y135808*
X103542Y135496*
X103656Y135340*
X103997Y135183*
X105020*
X104224D02*
X103429Y133465D01*
X101270Y136746D02*
X102406Y134558D01*
X100702*
X101270Y136746D02*
Y133465D01*
X104331Y99049D02*
Y95768D01*
Y99049D02*
X103308D01*
X102967Y98893*
X102853Y98736*
X102740Y98424*
Y98111*
X102853Y97799*
X102967Y97643*
X103308Y97486*
X104331*
X103535D02*
X102740Y95768D01*
X100240Y99049D02*
X101376D01*
X101490Y97643*
X101376Y97799*
X101035Y97955*
X100694*
X100353Y97799*
X100126Y97486*
X100013Y97018*
X100126Y96705*
X100240Y96236*
X100467Y95924*
X100808Y95768*
X101149*
X101490Y95924*
X101603Y96080*
X101717Y96393*
X99311Y120899D02*
Y117618D01*
Y120899D02*
X98288D01*
X97947Y120743*
X97834Y120587*
X97720Y120274*
Y119962*
X97834Y119649*
X97947Y119493*
X98288Y119337*
X99311*
X98516D02*
X97720Y117618D01*
X95334Y120431D02*
X95447Y120743D01*
X95788Y120899*
X96016*
X96356Y120743*
X96584Y120274*
X96697Y119493*
Y118712*
X96584Y118087*
X96356Y117774*
X96016Y117618*
X95902*
X95561Y117774*
X95334Y118087*
X95220Y118556*
Y118712*
X95334Y119181*
X95561Y119493*
X95902Y119649*
X96016*
X96356Y119493*
X96584Y119181*
X96697Y118712*
X129398Y155059D02*
X129511Y155372D01*
X129739Y155684*
X129966Y155840*
X130421*
X130648Y155684*
X130875Y155372*
X130989Y155059*
X131102Y154590*
Y153809*
X130989Y153340*
X130875Y153028*
X130648Y152715*
X130421Y152559*
X129966*
X129739Y152715*
X129511Y153028*
X129398Y153340*
X127693Y155840D02*
X127921Y155684D01*
X128148Y155372*
X128261Y155059*
X128375Y154590*
Y153809*
X128261Y153340*
X128148Y153028*
X127921Y152715*
X127693Y152559*
X127239*
X127011Y152715*
X126784Y153028*
X126671Y153340*
X126557Y153809*
Y154590*
X126671Y155059*
X126784Y155372*
X127011Y155684*
X127239Y155840*
X127693*
X125534D02*
Y152559D01*
Y155840D02*
X123943Y152559D01*
Y155840D02*
Y152559D01*
X122921Y155840D02*
Y152559D01*
Y155840D02*
X121330Y152559D01*
Y155840D02*
Y152559D01*
X120193Y155059D02*
Y155215D01*
X120080Y155528*
X119966Y155684*
X119739Y155840*
X119284*
X119057Y155684*
X118943Y155528*
X118830Y155215*
Y154903*
X118943Y154590*
X119171Y154122*
X120307Y152559*
X118716*
X116216Y154747D02*
X116330Y154278D01*
X116557Y153965*
X116898Y153809*
X117011*
X117352Y153965*
X117580Y154278*
X117693Y154747*
Y154903*
X117580Y155372*
X117352Y155684*
X117011Y155840*
X116898*
X116557Y155684*
X116330Y155372*
X116216Y154747*
Y153965*
X116330Y153184*
X116557Y152715*
X116898Y152559*
X117125*
X117466Y152715*
X117580Y153028*
G74*
X0Y0D02*
M02*
