*
*
G04 PADS 9.5 Build Number: 522968 generated Gerber (RS-274-X) file*
G04 PC Version=2.1*
*
%IN "SBAS8.pcb"*%
*
%MOIN*%
*
%FSLAX35Y35*%
*
*
*
*
G04 PC Standard Apertures*
*
*
G04 Thermal Relief Aperture macro.*
%AMTER*
1,1,$1,0,0*
1,0,$1-$2,0,0*
21,0,$3,$4,0,0,45*
21,0,$3,$4,0,0,135*
%
*
*
G04 Annular Aperture macro.*
%AMANN*
1,1,$1,0,0*
1,0,$2,0,0*
%
*
*
G04 Odd Aperture macro.*
%AMODD*
1,1,$1,0,0*
1,0,$1-0.005,0,0*
%
*
*
G04 PC Custom Aperture Macros*
*
*
*
*
*
*
G04 PC Aperture Table*
*
%ADD010C,0.001*%
%ADD020C,0.00394*%
%ADD048C,0.007*%
%ADD049C,0.005*%
*
*
*
*
G04 PC Circuitry*
G04 Layer Name SBAS8.pcb - circuitry*
%LPD*%
*
*
G04 PC Custom Flashes*
G04 Layer Name SBAS8.pcb - flashes*
%LPD*%
*
*
G04 PC Circuitry*
G04 Layer Name SBAS8.pcb - circuitry*
%LPD*%
*
G54D10*
G54D20*
G01X112795Y115354D02*
X119094D01*
Y121654*
X112795*
Y115354*
X125000D02*
X131299D01*
Y121654*
X125000*
Y115354*
X119094Y103937D02*
X125394D01*
Y110236*
X119094*
Y103937*
X131299D02*
X137598D01*
Y110236*
X131299*
Y103937*
X133169Y130837D02*
Y127756D01*
X136319*
Y130837*
X133169Y133337D02*
Y136417D01*
X136319*
Y133337*
X100000Y100000D02*
X150787D01*
Y150787*
X100000*
Y100000*
G54D48*
X122565Y127093D02*
G75*
G03X122565I-1250J0D01*
G01X123315Y125343D02*
Y144343D01*
X112315*
Y125343*
X123315*
G54D49*
X107216Y107717D02*
X107103Y108029D01*
X106875Y108342*
X106648Y108498*
X106194*
X105966Y108342*
X105739Y108029*
X105625Y107717*
X105512Y107248*
Y106467*
X105625Y105998*
X105739Y105685*
X105966Y105373*
X106194Y105217*
X106648*
X106875Y105373*
X107103Y105685*
X107216Y105998*
X108921Y108498D02*
X108694Y108342D01*
X108466Y108029*
X108353Y107717*
X108239Y107248*
Y106467*
X108353Y105998*
X108466Y105685*
X108694Y105373*
X108921Y105217*
X109375*
X109603Y105373*
X109830Y105685*
X109944Y105998*
X110057Y106467*
Y107248*
X109944Y107717*
X109830Y108029*
X109603Y108342*
X109375Y108498*
X108921*
X111080D02*
Y105217D01*
Y108498D02*
X112671Y105217D01*
Y108498D02*
Y105217D01*
X113694Y108498D02*
Y105217D01*
Y108498D02*
X115285Y105217D01*
Y108498D02*
Y105217D01*
X116307Y107873D02*
X116535Y108029D01*
X116875Y108498*
Y105217*
X135366Y140098D02*
X135252Y140411D01*
X135025Y140723*
X134798Y140880*
X134343*
X134116Y140723*
X133889Y140411*
X133775Y140098*
X133661Y139630*
Y138848*
X133775Y138380*
X133889Y138067*
X134116Y137755*
X134343Y137598*
X134798*
X135025Y137755*
X135252Y138067*
X135366Y138380*
X136389Y140255D02*
X136616Y140411D01*
X136957Y140880*
Y137598*
X116142Y124443D02*
Y122099D01*
X116255Y121630*
X116483Y121318*
X116824Y121161*
X117051*
X117392Y121318*
X117619Y121630*
X117733Y122099*
Y124443*
X118755Y123818D02*
X118983Y123974D01*
X119324Y124443*
Y121161*
G74*
X0Y0D02*
M02*
