*
*
G04 PADS 9.5 Build Number: 522968 generated Gerber (RS-274-X) file*
G04 PC Version=2.1*
*
%IN "SBAS8.pcb"*%
*
%MOIN*%
*
%FSLAX35Y35*%
*
*
*
*
G04 PC Standard Apertures*
*
*
G04 Thermal Relief Aperture macro.*
%AMTER*
1,1,$1,0,0*
1,0,$1-$2,0,0*
21,0,$3,$4,0,0,45*
21,0,$3,$4,0,0,135*
%
*
*
G04 Annular Aperture macro.*
%AMANN*
1,1,$1,0,0*
1,0,$2,0,0*
%
*
*
G04 Odd Aperture macro.*
%AMODD*
1,1,$1,0,0*
1,0,$1-0.005,0,0*
%
*
*
G04 PC Custom Aperture Macros*
*
*
*
*
*
*
G04 PC Aperture Table*
*
%ADD010C,0.001*%
%ADD033R,0.025X0.03*%
%ADD035O,0.06012X0.0424*%
%ADD036O,0.04831X0.0424*%
%ADD037C,0.05224*%
%ADD038C,0.06012*%
%ADD039R,0.06406X0.06406*%
%ADD040R,0.05618X0.06406*%
%ADD041O,0.03256X0.01681*%
%ADD042O,0.0365X0.01681*%
%ADD043O,0.01681X0.03256*%
%ADD044O,0.01681X0.0365*%
%ADD045R,0.06602X0.06602*%
%ADD046R,0.03X0.025*%
%ADD047R,0.02862X0.0365*%
*
*
*
*
G04 PC Circuitry*
G04 Layer Name SBAS8.pcb - circuitry*
%LPD*%
*
*
G04 PC Custom Flashes*
G04 Layer Name SBAS8.pcb - flashes*
%LPD*%
*
*
G04 PC Circuitry*
G04 Layer Name SBAS8.pcb - circuitry*
%LPD*%
*
G54D10*
G54D33*
G01X103051Y125453D03*
Y130453D03*
Y107913D03*
Y102913D03*
X102559Y119626D03*
Y114626D03*
G54D35*
X146457Y137697D03*
Y132776D03*
Y127854D03*
Y122933D03*
Y118012D03*
G54D36*
Y113091D03*
G54D37*
X103642Y147539D03*
X111516D03*
X119390D03*
X127264D03*
X135138D03*
X143012D03*
G54D38*
X122244Y110630D03*
X115945Y114961D03*
X128150D03*
X134449Y110630D03*
G54D39*
X140748Y105807D03*
X139567Y119980D03*
Y127067D03*
Y134154D03*
Y141240D03*
G54D40*
X140748Y112894D03*
G54D41*
X111220Y125197D03*
Y132283D03*
X122638D03*
Y125197D03*
G54D42*
X111417Y126969D03*
Y128740D03*
Y130512D03*
X122441D03*
Y128740D03*
Y126969D03*
G54D43*
X113386Y134449D03*
X120472D03*
Y123031D03*
X113386D03*
G54D44*
X115157Y134252D03*
X116929D03*
X118701D03*
Y123228D03*
X116929D03*
X115157D03*
G54D45*
X116929Y128740D03*
G54D46*
X135276Y102067D03*
X130276D03*
X119646Y118996D03*
X124646D03*
X105866Y116142D03*
X110866D03*
X130354Y105709D03*
X125354D03*
G54D47*
X112992Y103248D03*
Y107579D03*
X107972Y103248D03*
Y107579D03*
X0Y0D02*
M02*
