*
*
G04 PADS 9.5 Build Number: 522968 generated Gerber (RS-274-X) file*
G04 PC Version=2.1*
*
%IN "SBAS8.pcb"*%
*
%MOIN*%
*
%FSLAX35Y35*%
*
*
*
*
G04 PC Standard Apertures*
*
*
G04 Thermal Relief Aperture macro.*
%AMTER*
1,1,$1,0,0*
1,0,$1-$2,0,0*
21,0,$3,$4,0,0,45*
21,0,$3,$4,0,0,135*
%
*
*
G04 Annular Aperture macro.*
%AMANN*
1,1,$1,0,0*
1,0,$2,0,0*
%
*
*
G04 Odd Aperture macro.*
%AMODD*
1,1,$1,0,0*
1,0,$1-0.005,0,0*
%
*
*
G04 PC Custom Aperture Macros*
*
*
*
*
*
*
G04 PC Aperture Table*
*
%ADD010C,0.001*%
%ADD011R,0.07087X0.07087*%
%ADD012R,0.02X0.025*%
%ADD013O,0.074X0.024*%
%ADD014O,0.05512X0.0374*%
%ADD015O,0.04331X0.0374*%
%ADD016C,0.04724*%
%ADD017C,0.05512*%
%ADD018C,0.01181*%
%ADD019C,0.02362*%
%ADD020C,0.00394*%
*
*
*
*
G04 PC Circuitry*
G04 Layer Name SBAS8.pcb - circuitry*
%LPD*%
*
*
G04 PC Custom Flashes*
G04 Layer Name SBAS8.pcb - flashes*
%LPD*%
*
*
G04 PC Circuitry*
G04 Layer Name SBAS8.pcb - circuitry*
%LPD*%
*
G54D10*
G54D11*
G01X115945Y118504D03*
X122244Y107087D03*
X128150Y118504D03*
X134449Y107087D03*
G54D12*
X134744Y129587D03*
Y134587D03*
G54D13*
X127815Y127343D03*
Y132343D03*
Y137343D03*
Y142343D03*
X107815D03*
Y137343D03*
Y132343D03*
Y127343D03*
G54D14*
X146457Y137697D03*
Y132776D03*
Y127854D03*
Y122933D03*
Y118012D03*
G54D15*
Y113091D03*
G54D16*
X103642Y147539D03*
X111516D03*
X119390D03*
X127264D03*
X135138D03*
X143012D03*
G54D17*
X122244Y110630D03*
X115945Y114961D03*
X128150D03*
X134449Y110630D03*
G54D18*
Y107087D02*
Y107579D01*
X134547Y106299*
Y122736*
X111122Y112303D02*
X111270Y112156D01*
Y110089*
X114173Y107185*
X122146*
X122244Y107087*
X104232Y122835D02*
Y126949D01*
X104724Y127343*
X107815*
X118602Y127657D02*
X118917Y127343D01*
X127815*
X122244Y121850D02*
X128150Y120472D01*
Y118504*
X127815Y127343D02*
X134252D01*
X134547Y122736D02*
X134744Y122933D01*
X146457*
X134252Y127343D02*
X134744D01*
Y129587*
X134252Y127343D02*
X134547Y127047D01*
Y122736*
X107815Y132343D02*
X114862D01*
X107815Y137343D02*
X113327D01*
X114075Y138091*
X114862Y132343D02*
X115336D01*
X115542Y132136*
X115560*
X115748Y131949*
Y118504*
X115945*
X114862Y132343D02*
X118307D01*
X123002Y137037*
X123051*
X127726*
X127815Y137343*
X132087*
X134744Y134685*
Y134587*
X103642Y147539D02*
Y143425D01*
X104724Y142343*
X107815*
X117746*
X123051Y137037*
X127815Y142343D02*
X130020D01*
X130984Y143307*
X131102*
Y145079*
G54D19*
X116437Y110039D03*
X128642Y109154D03*
X127756Y102165D03*
X105118Y111024D03*
X111122Y112303D03*
X109941Y119488D03*
X121949Y115551D03*
X104232Y122835D03*
X109744Y123031D03*
X118602Y127657D03*
X122244Y121850D03*
X127559Y124114D03*
X131791Y124213D03*
X114075Y138091D03*
X131102Y145079D03*
G54D20*
X100000Y100000D02*
X150787D01*
Y150787*
X100000*
Y100000*
X0Y0D02*
M02*
